<svg width="600" height="600" viewBox="0 0 600 600" fill="none" xmlns="http://www.w3.org/2000/svg">
    <circle cx="112" cy="531" r="5" fill="#1F94AA" />
    <path
        d="M127.46 533.956V531.244H131.672V530.224H127.46V527.644H132.188V526.6H126.26V535H132.356V533.956H127.46ZM135.873 535.072C137.565 535.072 138.621 534.34 138.621 533.188C138.621 530.716 134.589 531.94 134.589 530.44C134.589 529.936 135.081 529.564 136.089 529.564C136.713 529.564 137.349 529.696 137.925 530.068L138.417 529.156C137.865 528.796 136.929 528.58 136.101 528.58C134.469 528.58 133.449 529.348 133.449 530.488C133.449 533.02 137.469 531.784 137.469 533.212C137.469 533.752 137.025 534.076 135.957 534.076C135.129 534.076 134.265 533.8 133.725 533.416L133.245 534.328C133.773 534.748 134.817 535.072 135.873 535.072ZM143.277 533.8C143.037 533.992 142.713 534.1 142.377 534.1C141.741 534.1 141.381 533.716 141.381 533.032V529.588H143.205V528.64H141.381V527.248H140.229V528.64H139.149V529.588H140.229V533.08C140.229 534.364 140.961 535.072 142.245 535.072C142.761 535.072 143.289 534.928 143.637 534.628L143.277 533.8ZM146.134 529.708V528.64H145.03V535H146.182V531.832C146.182 530.44 146.95 529.684 148.186 529.684C148.27 529.684 148.354 529.684 148.45 529.696V528.58C147.334 528.58 146.542 528.964 146.134 529.708ZM152.535 535.072C154.443 535.072 155.835 533.716 155.835 531.82C155.835 529.924 154.443 528.58 152.535 528.58C150.627 528.58 149.223 529.924 149.223 531.82C149.223 533.716 150.627 535.072 152.535 535.072ZM152.535 534.064C151.311 534.064 150.387 533.176 150.387 531.82C150.387 530.464 151.311 529.588 152.535 529.588C153.759 529.588 154.671 530.464 154.671 531.82C154.671 533.176 153.759 534.064 152.535 534.064ZM162.42 528.64V529.624C161.88 528.928 161.016 528.58 160.068 528.58C158.232 528.58 156.84 529.816 156.84 531.652C156.84 533.488 158.232 534.736 160.068 534.736C160.98 534.736 161.808 534.412 162.36 533.752V534.256C162.36 535.696 161.676 536.392 160.176 536.392C159.24 536.392 158.316 536.068 157.728 535.564L157.176 536.452C157.872 537.076 159.048 537.4 160.212 537.4C162.372 537.4 163.512 536.38 163.512 534.136V528.64H162.42ZM160.2 533.728C158.916 533.728 158.004 532.876 158.004 531.652C158.004 530.416 158.916 529.588 160.2 529.588C161.472 529.588 162.384 530.416 162.384 531.652C162.384 532.876 161.472 533.728 160.2 533.728ZM171.461 531.856C171.461 529.9 170.153 528.58 168.317 528.58C166.481 528.58 165.125 529.936 165.125 531.82C165.125 533.716 166.493 535.072 168.545 535.072C169.601 535.072 170.477 534.712 171.053 534.04L170.417 533.296C169.949 533.812 169.325 534.064 168.581 534.064C167.321 534.064 166.421 533.32 166.277 532.204H171.437C171.449 532.096 171.461 531.952 171.461 531.856ZM168.317 529.552C169.433 529.552 170.237 530.308 170.357 531.376H166.277C166.397 530.296 167.213 529.552 168.317 529.552ZM176.457 528.58C175.449 528.58 174.633 528.952 174.165 529.6V528.64H173.061V535H174.213V531.724C174.213 530.344 175.005 529.612 176.229 529.612C177.321 529.612 177.945 530.224 177.945 531.472V535H179.097V531.34C179.097 529.468 178.005 528.58 176.457 528.58Z"
        fill="#112D35" />
    <circle cx="218" cy="531" r="5" fill="#AA92E1" />
    <path
        d="M232.26 535H238.008V533.956H233.46V526.6H232.26V535ZM243.911 528.64V531.928C243.911 533.296 243.143 534.04 241.943 534.04C240.851 534.04 240.227 533.416 240.227 532.168V528.64H239.075V532.3C239.075 534.172 240.167 535.072 241.811 535.072C242.711 535.072 243.503 534.7 243.971 534.04V535H245.063V528.64H243.911ZM250.472 533.8C250.232 533.992 249.908 534.1 249.572 534.1C248.936 534.1 248.576 533.716 248.576 533.032V529.588H250.4V528.64H248.576V527.248H247.424V528.64H246.344V529.588H247.424V533.08C247.424 534.364 248.156 535.072 249.44 535.072C249.956 535.072 250.484 534.928 250.832 534.628L250.472 533.8ZM257.762 531.856C257.762 529.9 256.454 528.58 254.618 528.58C252.782 528.58 251.426 529.936 251.426 531.82C251.426 533.716 252.794 535.072 254.846 535.072C255.902 535.072 256.778 534.712 257.354 534.04L256.718 533.296C256.25 533.812 255.626 534.064 254.882 534.064C253.622 534.064 252.722 533.32 252.578 532.204H257.738C257.75 532.096 257.762 531.952 257.762 531.856ZM254.618 529.552C255.734 529.552 256.538 530.308 256.658 531.376H252.578C252.698 530.296 253.514 529.552 254.618 529.552ZM259.938 527.416C260.394 527.416 260.718 527.08 260.718 526.648C260.718 526.24 260.382 525.916 259.938 525.916C259.494 525.916 259.158 526.252 259.158 526.672C259.158 527.092 259.494 527.416 259.938 527.416ZM259.362 535H260.514V528.64H259.362V535ZM266.109 528.58C265.101 528.58 264.285 528.952 263.817 529.6V528.64H262.713V535H263.865V531.724C263.865 530.344 264.657 529.612 265.881 529.612C266.973 529.612 267.597 530.224 267.597 531.472V535H268.749V531.34C268.749 529.468 267.657 528.58 266.109 528.58ZM271.457 527.416C271.913 527.416 272.237 527.08 272.237 526.648C272.237 526.24 271.901 525.916 271.457 525.916C271.013 525.916 270.677 526.252 270.677 526.672C270.677 527.092 271.013 527.416 271.457 527.416ZM270.881 535H272.033V528.64H270.881V535ZM275.097 534.052L278.853 529.396V528.64H273.693V529.588H277.377L273.621 534.256V535H278.949V534.052H275.097ZM281.066 527.416C281.522 527.416 281.846 527.08 281.846 526.648C281.846 526.24 281.51 525.916 281.066 525.916C280.622 525.916 280.286 526.252 280.286 526.672C280.286 527.092 280.622 527.416 281.066 527.416ZM280.49 535H281.642V528.64H280.49V535ZM287.238 528.58C286.23 528.58 285.414 528.952 284.946 529.6V528.64H283.842V535H284.994V531.724C284.994 530.344 285.786 529.612 287.01 529.612C288.102 529.612 288.726 530.224 288.726 531.472V535H289.878V531.34C289.878 529.468 288.786 528.58 287.238 528.58ZM297.037 528.64V529.624C296.497 528.928 295.633 528.58 294.685 528.58C292.849 528.58 291.457 529.816 291.457 531.652C291.457 533.488 292.849 534.736 294.685 534.736C295.597 534.736 296.425 534.412 296.977 533.752V534.256C296.977 535.696 296.293 536.392 294.793 536.392C293.857 536.392 292.933 536.068 292.345 535.564L291.793 536.452C292.489 537.076 293.665 537.4 294.829 537.4C296.989 537.4 298.129 536.38 298.129 534.136V528.64H297.037ZM294.817 533.728C293.533 533.728 292.621 532.876 292.621 531.652C292.621 530.416 293.533 529.588 294.817 529.588C296.089 529.588 297.001 530.416 297.001 531.652C297.001 532.876 296.089 533.728 294.817 533.728ZM309.745 526.6V530.212H304.921V526.6H303.721V535H304.921V531.256H309.745V535H310.945V526.6H309.745ZM316.015 535.072C317.923 535.072 319.315 533.716 319.315 531.82C319.315 529.924 317.923 528.58 316.015 528.58C314.107 528.58 312.703 529.924 312.703 531.82C312.703 533.716 314.107 535.072 316.015 535.072ZM316.015 534.064C314.791 534.064 313.867 533.176 313.867 531.82C313.867 530.464 314.791 529.588 316.015 529.588C317.239 529.588 318.151 530.464 318.151 531.82C318.151 533.176 317.239 534.064 316.015 534.064ZM322.012 529.708V528.64H320.908V535H322.06V531.832C322.06 530.44 322.828 529.684 324.064 529.684C324.148 529.684 324.232 529.684 324.328 529.696V528.58C323.212 528.58 322.42 528.964 322.012 529.708ZM333.704 528.58C332.624 528.58 331.736 529.036 331.256 529.756C330.836 528.964 330.02 528.58 329.048 528.58C328.088 528.58 327.308 528.94 326.852 529.588V528.64H325.748V535H326.9V531.724C326.9 530.344 327.656 529.612 328.808 529.612C329.852 529.612 330.452 530.224 330.452 531.472V535H331.604V531.724C331.604 530.344 332.36 529.612 333.512 529.612C334.556 529.612 335.156 530.224 335.156 531.472V535H336.308V531.34C336.308 529.468 335.252 528.58 333.704 528.58ZM341.187 535.072C343.095 535.072 344.487 533.716 344.487 531.82C344.487 529.924 343.095 528.58 341.187 528.58C339.279 528.58 337.875 529.924 337.875 531.82C337.875 533.716 339.279 535.072 341.187 535.072ZM341.187 534.064C339.963 534.064 339.039 533.176 339.039 531.82C339.039 530.464 339.963 529.588 341.187 529.588C342.411 529.588 343.323 530.464 343.323 531.82C343.323 533.176 342.411 534.064 341.187 534.064ZM349.476 528.58C348.468 528.58 347.652 528.952 347.184 529.6V528.64H346.08V535H347.232V531.724C347.232 530.344 348.024 529.612 349.248 529.612C350.34 529.612 350.964 530.224 350.964 531.472V535H352.116V531.34C352.116 529.468 351.024 528.58 349.476 528.58ZM360.031 531.856C360.031 529.9 358.723 528.58 356.887 528.58C355.051 528.58 353.695 529.936 353.695 531.82C353.695 533.716 355.063 535.072 357.115 535.072C358.171 535.072 359.047 534.712 359.623 534.04L358.987 533.296C358.519 533.812 357.895 534.064 357.151 534.064C355.891 534.064 354.991 533.32 354.847 532.204H360.007C360.019 532.096 360.031 531.952 360.031 531.856ZM356.887 529.552C358.003 529.552 358.807 530.308 358.927 531.376H354.847C354.967 530.296 355.783 529.552 356.887 529.552Z"
        fill="#112D35" />
    <circle cx="398" cy="531" r="5" fill="#78B1FA" />
    <path
        d="M415.536 526.6H412.26V535H413.46V532.456H415.536C417.72 532.456 419.04 531.352 419.04 529.528C419.04 527.704 417.72 526.6 415.536 526.6ZM415.5 531.412H413.46V527.644H415.5C417.036 527.644 417.84 528.328 417.84 529.528C417.84 530.728 417.036 531.412 415.5 531.412ZM421.634 529.708V528.64H420.53V535H421.682V531.832C421.682 530.44 422.45 529.684 423.686 529.684C423.77 529.684 423.854 529.684 423.95 529.696V528.58C422.834 528.58 422.042 528.964 421.634 529.708ZM428.035 535.072C429.943 535.072 431.335 533.716 431.335 531.82C431.335 529.924 429.943 528.58 428.035 528.58C426.127 528.58 424.723 529.924 424.723 531.82C424.723 533.716 426.127 535.072 428.035 535.072ZM428.035 534.064C426.811 534.064 425.887 533.176 425.887 531.82C425.887 530.464 426.811 529.588 428.035 529.588C429.259 529.588 430.171 530.464 430.171 531.82C430.171 533.176 429.259 534.064 428.035 534.064ZM437.92 528.64V529.624C437.38 528.928 436.516 528.58 435.568 528.58C433.732 528.58 432.34 529.816 432.34 531.652C432.34 533.488 433.732 534.736 435.568 534.736C436.48 534.736 437.308 534.412 437.86 533.752V534.256C437.86 535.696 437.176 536.392 435.676 536.392C434.74 536.392 433.816 536.068 433.228 535.564L432.676 536.452C433.372 537.076 434.548 537.4 435.712 537.4C437.872 537.4 439.012 536.38 439.012 534.136V528.64H437.92ZM435.7 533.728C434.416 533.728 433.504 532.876 433.504 531.652C433.504 530.416 434.416 529.588 435.7 529.588C436.972 529.588 437.884 530.416 437.884 531.652C437.884 532.876 436.972 533.728 435.7 533.728ZM446.961 531.856C446.961 529.9 445.653 528.58 443.817 528.58C441.981 528.58 440.625 529.936 440.625 531.82C440.625 533.716 441.993 535.072 444.045 535.072C445.101 535.072 445.977 534.712 446.553 534.04L445.917 533.296C445.449 533.812 444.825 534.064 444.081 534.064C442.821 534.064 441.921 533.32 441.777 532.204H446.937C446.949 532.096 446.961 531.952 446.961 531.856ZM443.817 529.552C444.933 529.552 445.737 530.308 445.857 531.376H441.777C441.897 530.296 442.713 529.552 443.817 529.552ZM450.385 535.072C452.077 535.072 453.133 534.34 453.133 533.188C453.133 530.716 449.101 531.94 449.101 530.44C449.101 529.936 449.593 529.564 450.601 529.564C451.225 529.564 451.861 529.696 452.437 530.068L452.929 529.156C452.377 528.796 451.441 528.58 450.613 528.58C448.981 528.58 447.961 529.348 447.961 530.488C447.961 533.02 451.981 531.784 451.981 533.212C451.981 533.752 451.537 534.076 450.469 534.076C449.641 534.076 448.777 533.8 448.237 533.416L447.757 534.328C448.285 534.748 449.329 535.072 450.385 535.072ZM457.788 533.8C457.548 533.992 457.224 534.1 456.888 534.1C456.252 534.1 455.892 533.716 455.892 533.032V529.588H457.716V528.64H455.892V527.248H454.74V528.64H453.66V529.588H454.74V533.08C454.74 534.364 455.472 535.072 456.756 535.072C457.272 535.072 457.8 534.928 458.148 534.628L457.788 533.8ZM465.078 531.856C465.078 529.9 463.77 528.58 461.934 528.58C460.098 528.58 458.742 529.936 458.742 531.82C458.742 533.716 460.11 535.072 462.162 535.072C463.218 535.072 464.094 534.712 464.67 534.04L464.034 533.296C463.566 533.812 462.942 534.064 462.198 534.064C460.938 534.064 460.038 533.32 459.894 532.204H465.054C465.066 532.096 465.078 531.952 465.078 531.856ZM461.934 529.552C463.05 529.552 463.854 530.308 463.974 531.376H459.894C460.014 530.296 460.83 529.552 461.934 529.552ZM467.782 529.708V528.64H466.678V535H467.83V531.832C467.83 530.44 468.598 529.684 469.834 529.684C469.918 529.684 470.002 529.684 470.098 529.696V528.58C468.982 528.58 468.19 528.964 467.782 529.708ZM474.183 535.072C476.091 535.072 477.483 533.716 477.483 531.82C477.483 529.924 476.091 528.58 474.183 528.58C472.275 528.58 470.871 529.924 470.871 531.82C470.871 533.716 472.275 535.072 474.183 535.072ZM474.183 534.064C472.959 534.064 472.035 533.176 472.035 531.82C472.035 530.464 472.959 529.588 474.183 529.588C475.407 529.588 476.319 530.464 476.319 531.82C476.319 533.176 475.407 534.064 474.183 534.064ZM482.472 528.58C481.464 528.58 480.648 528.952 480.18 529.6V528.64H479.076V535H480.228V531.724C480.228 530.344 481.02 529.612 482.244 529.612C483.336 529.612 483.96 530.224 483.96 531.472V535H485.112V531.34C485.112 529.468 484.02 528.58 482.472 528.58ZM493.028 531.856C493.028 529.9 491.72 528.58 489.884 528.58C488.048 528.58 486.692 529.936 486.692 531.82C486.692 533.716 488.06 535.072 490.112 535.072C491.168 535.072 492.044 534.712 492.62 534.04L491.984 533.296C491.516 533.812 490.892 534.064 490.148 534.064C488.888 534.064 487.988 533.32 487.844 532.204H493.004C493.016 532.096 493.028 531.952 493.028 531.856ZM489.884 529.552C491 529.552 491.804 530.308 491.924 531.376H487.844C487.964 530.296 488.78 529.552 489.884 529.552Z"
        fill="#112D35" />
    <path opacity="0.399158"
        d="M276.631 463.11C279.018 463.11 280.778 461.438 280.778 459.15C280.778 456.862 279.018 455.19 276.631 455.19C274.244 455.19 272.484 456.873 272.484 459.15C272.484 461.427 274.244 463.11 276.631 463.11ZM276.631 461.856C275.08 461.856 273.925 460.723 273.925 459.15C273.925 457.577 275.08 456.444 276.631 456.444C278.182 456.444 279.337 457.577 279.337 459.15C279.337 460.723 278.182 461.856 276.631 461.856ZM286.342 457.126L284.461 461.482L282.635 457.126H281.205L283.724 463H285.143L287.662 457.126H286.342ZM292.833 457.126V460.096C292.833 461.273 292.184 461.867 291.227 461.867C290.358 461.867 289.852 461.361 289.852 460.294V457.126H288.477V460.481C288.477 462.252 289.5 463.077 291.007 463.077C291.766 463.077 292.459 462.791 292.899 462.252V463H294.208V457.126H292.833ZM296.008 463H297.383V454.838H296.008V463ZM301.432 457.06C300.486 457.06 299.573 457.302 298.946 457.786L299.485 458.787C299.925 458.424 300.607 458.204 301.267 458.204C302.246 458.204 302.73 458.677 302.73 459.48V459.568H301.212C299.43 459.568 298.77 460.338 298.77 461.317C298.77 462.34 299.617 463.077 300.959 463.077C301.839 463.077 302.477 462.791 302.807 462.285V463H304.105V459.557C304.105 457.863 303.126 457.06 301.432 457.06ZM301.245 462.076C300.541 462.076 300.123 461.757 300.123 461.262C300.123 460.833 300.376 460.481 301.311 460.481H302.73V461.163C302.499 461.768 301.916 462.076 301.245 462.076ZM309.016 461.702C308.807 461.867 308.532 461.944 308.246 461.944C307.718 461.944 307.432 461.636 307.432 461.064V458.27H309.005V457.17H307.432V455.828H306.057V457.17H305.089V458.27H306.057V461.097C306.057 462.395 306.794 463.077 308.081 463.077C308.576 463.077 309.071 462.945 309.401 462.681L309.016 461.702ZM311.225 456.158C311.742 456.158 312.105 455.784 312.105 455.3C312.105 454.849 311.731 454.508 311.225 454.508C310.719 454.508 310.345 454.871 310.345 455.333C310.345 455.795 310.719 456.158 311.225 456.158ZM310.532 463H311.907V457.126H310.532V463ZM316.352 463.077C318.178 463.077 319.487 461.823 319.487 460.063C319.487 458.303 318.178 457.06 316.352 457.06C314.548 457.06 313.228 458.303 313.228 460.063C313.228 461.823 314.548 463.077 316.352 463.077ZM316.352 461.9C315.362 461.9 314.614 461.185 314.614 460.063C314.614 458.941 315.362 458.226 316.352 458.226C317.353 458.226 318.101 458.941 318.101 460.063C318.101 461.185 317.353 461.9 316.352 461.9ZM324.134 457.06C323.276 457.06 322.561 457.346 322.11 457.885V457.126H320.801V463H322.176V460.03C322.176 458.853 322.836 458.259 323.815 458.259C324.695 458.259 325.212 458.765 325.212 459.81V463H326.587V459.634C326.587 457.863 325.542 457.06 324.134 457.06Z"
        fill="#112D35" />
    <path opacity="0.4"
        d="M518.502 463.11C519.767 463.11 520.845 462.659 521.56 461.823L520.636 460.943C520.075 461.559 519.382 461.856 518.579 461.856C516.984 461.856 515.829 460.734 515.829 459.15C515.829 457.566 516.984 456.444 518.579 456.444C519.382 456.444 520.075 456.741 520.636 457.346L521.56 456.477C520.845 455.641 519.767 455.19 518.513 455.19C516.148 455.19 514.388 456.851 514.388 459.15C514.388 461.449 516.148 463.11 518.502 463.11ZM526.978 457.126L525.119 461.471L523.271 457.126H521.841L524.404 463.022L524.305 463.253C524.041 463.836 523.755 464.067 523.271 464.067C522.897 464.067 522.523 463.913 522.259 463.66L521.709 464.672C522.083 465.013 522.699 465.211 523.282 465.211C524.261 465.211 525.009 464.804 525.548 463.473L528.298 457.126H526.978ZM531.692 463.077C532.836 463.077 533.749 462.582 534.2 461.702L533.144 461.086C532.792 461.647 532.264 461.9 531.681 461.9C530.669 461.9 529.899 461.207 529.899 460.063C529.899 458.93 530.669 458.226 531.681 458.226C532.264 458.226 532.792 458.479 533.144 459.04L534.2 458.424C533.749 457.533 532.836 457.06 531.692 457.06C529.833 457.06 528.513 458.303 528.513 460.063C528.513 461.823 529.833 463.077 531.692 463.077ZM535.335 463H536.71V454.838H535.335V463ZM544.036 460.096C544.036 458.259 542.782 457.06 541.066 457.06C539.317 457.06 538.03 458.314 538.03 460.063C538.03 461.812 539.306 463.077 541.275 463.077C542.287 463.077 543.112 462.747 543.64 462.12L542.903 461.273C542.485 461.702 541.968 461.911 541.308 461.911C540.285 461.911 539.57 461.361 539.405 460.503H544.014C544.025 460.371 544.036 460.206 544.036 460.096ZM541.066 458.16C541.968 458.16 542.617 458.743 542.727 459.59H539.394C539.526 458.732 540.175 458.16 541.066 458.16ZM549.959 461.801V459.678H553.677V458.501H549.959V456.499H554.15V455.3H548.529V463H554.304V461.801H549.959ZM559.099 457.06C558.241 457.06 557.526 457.346 557.075 457.885V457.126H555.766V463H557.141V460.03C557.141 458.853 557.801 458.259 558.78 458.259C559.66 458.259 560.177 458.765 560.177 459.81V463H561.552V459.634C561.552 457.863 560.507 457.06 559.099 457.06ZM567.728 454.838V457.852C567.266 457.313 566.595 457.06 565.836 457.06C564.131 457.06 562.866 458.237 562.866 460.063C562.866 461.889 564.131 463.077 565.836 463.077C566.639 463.077 567.321 462.802 567.783 462.241V463H569.103V454.838H567.728ZM566.001 461.9C565.011 461.9 564.252 461.185 564.252 460.063C564.252 458.941 565.011 458.226 566.001 458.226C566.991 458.226 567.75 458.941 567.75 460.063C567.75 461.185 566.991 461.9 566.001 461.9Z"
        fill="#112D35" />
    <path opacity="0.4"
        d="M34.598 463.11C35.863 463.11 36.941 462.659 37.656 461.823L36.732 460.943C36.171 461.559 35.478 461.856 34.675 461.856C33.08 461.856 31.925 460.734 31.925 459.15C31.925 457.566 33.08 456.444 34.675 456.444C35.478 456.444 36.171 456.741 36.732 457.346L37.656 456.477C36.941 455.641 35.863 455.19 34.609 455.19C32.244 455.19 30.484 456.851 30.484 459.15C30.484 461.449 32.244 463.11 34.598 463.11ZM43.0742 457.126L41.2152 461.471L39.3672 457.126H37.9372L40.5002 463.022L40.4012 463.253C40.1372 463.836 39.8512 464.067 39.3672 464.067C38.9932 464.067 38.6192 463.913 38.3552 463.66L37.8052 464.672C38.1792 465.013 38.7952 465.211 39.3782 465.211C40.3572 465.211 41.1052 464.804 41.6442 463.473L44.3942 457.126H43.0742ZM47.7874 463.077C48.9314 463.077 49.8444 462.582 50.2954 461.702L49.2394 461.086C48.8874 461.647 48.3594 461.9 47.7764 461.9C46.7644 461.9 45.9944 461.207 45.9944 460.063C45.9944 458.93 46.7644 458.226 47.7764 458.226C48.3594 458.226 48.8874 458.479 49.2394 459.04L50.2954 458.424C49.8444 457.533 48.9314 457.06 47.7874 457.06C45.9284 457.06 44.6084 458.303 44.6084 460.063C44.6084 461.823 45.9284 463.077 47.7874 463.077ZM51.4303 463H52.8053V454.838H51.4303V463ZM60.132 460.096C60.132 458.259 58.878 457.06 57.162 457.06C55.413 457.06 54.126 458.314 54.126 460.063C54.126 461.812 55.402 463.077 57.371 463.077C58.383 463.077 59.208 462.747 59.736 462.12L58.999 461.273C58.581 461.702 58.064 461.911 57.404 461.911C56.381 461.911 55.666 461.361 55.501 460.503H60.11C60.121 460.371 60.132 460.206 60.132 460.096ZM57.162 458.16C58.064 458.16 58.713 458.743 58.823 459.59H55.49C55.622 458.732 56.271 458.16 57.162 458.16ZM67.0118 463.11C69.1238 463.11 70.1248 462.054 70.1248 460.822C70.1248 457.995 65.5598 459.062 65.5598 457.423C65.5598 456.84 66.0438 456.378 67.2318 456.378C67.9028 456.378 68.6618 456.576 69.3548 456.983L69.8058 455.872C69.1348 455.432 68.1668 455.19 67.2428 455.19C65.1308 455.19 64.1408 456.246 64.1408 457.489C64.1408 460.349 68.7168 459.26 68.7168 460.921C68.7168 461.493 68.2108 461.922 67.0118 461.922C66.0658 461.922 65.0868 461.57 64.4708 461.075L63.9758 462.186C64.6138 462.736 65.8128 463.11 67.0118 463.11ZM74.5568 461.702C74.3478 461.867 74.0728 461.944 73.7868 461.944C73.2588 461.944 72.9728 461.636 72.9728 461.064V458.27H74.5458V457.17H72.9728V455.828H71.5978V457.17H70.6298V458.27H71.5978V461.097C71.5978 462.395 72.3348 463.077 73.6218 463.077C74.1168 463.077 74.6118 462.945 74.9418 462.681L74.5568 461.702ZM78.3169 457.06C77.3709 457.06 76.4579 457.302 75.8309 457.786L76.3699 458.787C76.8099 458.424 77.4919 458.204 78.1519 458.204C79.1309 458.204 79.6149 458.677 79.6149 459.48V459.568H78.0969C76.3149 459.568 75.6549 460.338 75.6549 461.317C75.6549 462.34 76.5019 463.077 77.8439 463.077C78.7239 463.077 79.3619 462.791 79.6919 462.285V463H80.9899V459.557C80.9899 457.863 80.0109 457.06 78.3169 457.06ZM78.1299 462.076C77.4259 462.076 77.0079 461.757 77.0079 461.262C77.0079 460.833 77.2609 460.481 78.1959 460.481H79.6149V461.163C79.3839 461.768 78.8009 462.076 78.1299 462.076ZM84.0635 457.984V457.126H82.7545V463H84.1295V460.151C84.1295 458.952 84.7895 458.336 85.8345 458.336C85.9335 458.336 86.0325 458.347 86.1535 458.369V457.06C85.1745 457.06 84.4595 457.368 84.0635 457.984ZM90.6808 461.702C90.4718 461.867 90.1968 461.944 89.9108 461.944C89.3828 461.944 89.0968 461.636 89.0968 461.064V458.27H90.6698V457.17H89.0968V455.828H87.7218V457.17H86.7538V458.27H87.7218V461.097C87.7218 462.395 88.4588 463.077 89.7458 463.077C90.2408 463.077 90.7358 462.945 91.0658 462.681L90.6808 461.702Z"
        fill="#112D35" />
    <path fill-rule="evenodd" clip-rule="evenodd"
        d="M37 414C37 414 127.966 405.486 172.009 352.919C216.052 300.351 235.127 207.214 255.029 238.153C274.931 269.092 282.793 373.098 318.41 385.852C354.027 398.605 374.004 315.424 422.812 333.225C471.62 351.026 510.963 409.687 556.996 413.098C556.479 413.012 37 414 37 414Z"
        fill="url(#paint0_linear_0_120)" />
    <g filter="url(#filter0_b_0_120)">
        <path fill-rule="evenodd" clip-rule="evenodd"
            d="M37 413.785C68.5733 389.395 86.2715 380.564 124.644 389.395C163.017 398.226 210.113 397.481 233.681 341.111C257.25 284.741 254.461 196 271.62 196C288.779 196 285.802 371.087 375.673 389.395C465.543 407.704 542 414 542 414C542 414 46.1443 412.755 37 413.785Z"
            fill="url(#paint1_linear_0_120)" />
    </g>
    <g style="mix-blend-mode:hard-light">
        <path fill-rule="evenodd" clip-rule="evenodd" d="M176 73V414H300V73H176Z" fill="#AEAAE8"
            fill-opacity="0.5" />
    </g>
    <g filter="url(#filter1_b_0_120)">
        <path fill-rule="evenodd" clip-rule="evenodd"
            d="M33 413.673C33 413.673 201.929 418.159 278.325 361.176C354.72 304.193 365.64 209 417.597 209C469.554 209 496.653 361.616 560 413.215C560 413.43 33 413.673 33 413.673Z"
            fill="url(#paint2_linear_0_120)" />
    </g>
    <g style="mix-blend-mode:hard-light">
        <path fill-rule="evenodd" clip-rule="evenodd" d="M346 73V414H470V73H346Z" fill="#AEAAE8"
            fill-opacity="0.5" />
    </g>
    <path d="M300.5 413.24V93" stroke="url(#paint3_linear_0_120)" stroke-linecap="square"
        stroke-dasharray="1 5" />
    <path d="M565 413.5L35 413.5" stroke="#112D35" stroke-linecap="square" />
    <path opacity="0.5"
        d="M369.5 142L369.49 135H368.67L365.79 139.92L362.87 135H362.05V142H363.01V136.93L365.54 141.15H366L368.53 136.9L368.54 142H369.5ZM376.251 139.38C376.251 137.75 375.161 136.65 373.631 136.65C372.101 136.65 370.971 137.78 370.971 139.35C370.971 140.93 372.111 142.06 373.821 142.06C374.701 142.06 375.431 141.76 375.911 141.2L375.381 140.58C374.991 141.01 374.471 141.22 373.851 141.22C372.801 141.22 372.051 140.6 371.931 139.67H376.231C376.241 139.58 376.251 139.46 376.251 139.38ZM373.631 137.46C374.561 137.46 375.231 138.09 375.331 138.98H371.931C372.031 138.08 372.711 137.46 373.631 137.46ZM379.367 136.65C378.517 136.65 377.727 136.89 377.177 137.33L377.577 138.05C377.987 137.7 378.627 137.48 379.257 137.48C380.207 137.48 380.677 137.95 380.677 138.76V138.95H379.157C377.577 138.95 377.027 139.65 377.027 140.5C377.027 141.42 377.787 142.06 378.987 142.06C379.817 142.06 380.407 141.78 380.727 141.3V142H381.637V138.8C381.637 137.35 380.817 136.65 379.367 136.65ZM379.147 141.32C378.417 141.32 377.977 140.99 377.977 140.46C377.977 140.01 378.247 139.64 379.197 139.64H380.677V140.38C380.437 140.99 379.867 141.32 379.147 141.32ZM384.934 142.06C386.344 142.06 387.224 141.45 387.224 140.49C387.224 138.43 383.864 139.45 383.864 138.2C383.864 137.78 384.274 137.47 385.114 137.47C385.634 137.47 386.164 137.58 386.644 137.89L387.054 137.13C386.594 136.83 385.814 136.65 385.124 136.65C383.764 136.65 382.914 137.29 382.914 138.24C382.914 140.35 386.264 139.32 386.264 140.51C386.264 140.96 385.894 141.23 385.004 141.23C384.314 141.23 383.594 141 383.144 140.68L382.744 141.44C383.184 141.79 384.054 142.06 384.934 142.06ZM392.404 136.7V139.44C392.404 140.58 391.764 141.2 390.764 141.2C389.854 141.2 389.334 140.68 389.334 139.64V136.7H388.374V139.75C388.374 141.31 389.284 142.06 390.654 142.06C391.404 142.06 392.064 141.75 392.454 141.2V142H393.364V136.7H392.404ZM396.111 137.59V136.7H395.191V142H396.151V139.36C396.151 138.2 396.791 137.57 397.821 137.57C397.891 137.57 397.961 137.57 398.041 137.58V136.65C397.111 136.65 396.451 136.97 396.111 137.59ZM403.966 139.38C403.966 137.75 402.876 136.65 401.346 136.65C399.816 136.65 398.686 137.78 398.686 139.35C398.686 140.93 399.826 142.06 401.536 142.06C402.416 142.06 403.146 141.76 403.626 141.2L403.096 140.58C402.706 141.01 402.186 141.22 401.566 141.22C400.516 141.22 399.766 140.6 399.646 139.67H403.946C403.956 139.58 403.966 139.46 403.966 139.38ZM401.346 137.46C402.276 137.46 402.946 138.09 403.046 138.98H399.646C399.746 138.08 400.426 137.46 401.346 137.46ZM406.819 142.06C408.229 142.06 409.109 141.45 409.109 140.49C409.109 138.43 405.749 139.45 405.749 138.2C405.749 137.78 406.159 137.47 406.999 137.47C407.519 137.47 408.049 137.58 408.529 137.89L408.939 137.13C408.479 136.83 407.699 136.65 407.009 136.65C405.649 136.65 404.799 137.29 404.799 138.24C404.799 140.35 408.149 139.32 408.149 140.51C408.149 140.96 407.779 141.23 406.889 141.23C406.199 141.23 405.479 141 405.029 140.68L404.629 141.44C405.069 141.79 405.939 142.06 406.819 142.06ZM364.78 147H362.05V154H363.05V151.88H364.78C366.6 151.88 367.7 150.96 367.7 149.44C367.7 147.92 366.6 147 364.78 147ZM364.75 151.01H363.05V147.87H364.75C366.03 147.87 366.7 148.44 366.7 149.44C366.7 150.44 366.03 151.01 364.75 151.01ZM369.861 149.59V148.7H368.941V154H369.901V151.36C369.901 150.2 370.541 149.57 371.571 149.57C371.641 149.57 371.711 149.57 371.791 149.58V148.65C370.861 148.65 370.201 148.97 369.861 149.59ZM375.196 154.06C376.786 154.06 377.946 152.93 377.946 151.35C377.946 149.77 376.786 148.65 375.196 148.65C373.606 148.65 372.436 149.77 372.436 151.35C372.436 152.93 373.606 154.06 375.196 154.06ZM375.196 153.22C374.176 153.22 373.406 152.48 373.406 151.35C373.406 150.22 374.176 149.49 375.196 149.49C376.216 149.49 376.976 150.22 376.976 151.35C376.976 152.48 376.216 153.22 375.196 153.22ZM383.433 148.7V149.52C382.983 148.94 382.263 148.65 381.473 148.65C379.943 148.65 378.783 149.68 378.783 151.21C378.783 152.74 379.943 153.78 381.473 153.78C382.233 153.78 382.923 153.51 383.383 152.96V153.38C383.383 154.58 382.813 155.16 381.563 155.16C380.783 155.16 380.013 154.89 379.523 154.47L379.063 155.21C379.643 155.73 380.623 156 381.593 156C383.393 156 384.343 155.15 384.343 153.28V148.7H383.433ZM381.583 152.94C380.513 152.94 379.753 152.23 379.753 151.21C379.753 150.18 380.513 149.49 381.583 149.49C382.643 149.49 383.403 150.18 383.403 151.21C383.403 152.23 382.643 152.94 381.583 152.94ZM390.968 151.38C390.968 149.75 389.878 148.65 388.348 148.65C386.818 148.65 385.688 149.78 385.688 151.35C385.688 152.93 386.828 154.06 388.538 154.06C389.418 154.06 390.148 153.76 390.628 153.2L390.098 152.58C389.708 153.01 389.188 153.22 388.568 153.22C387.518 153.22 386.768 152.6 386.648 151.67H390.948C390.958 151.58 390.968 151.46 390.968 151.38ZM388.348 149.46C389.278 149.46 389.948 150.09 390.048 150.98H386.648C386.748 150.08 387.428 149.46 388.348 149.46ZM393.821 154.06C395.231 154.06 396.111 153.45 396.111 152.49C396.111 150.43 392.751 151.45 392.751 150.2C392.751 149.78 393.161 149.47 394.001 149.47C394.521 149.47 395.051 149.58 395.531 149.89L395.941 149.13C395.481 148.83 394.701 148.65 394.011 148.65C392.651 148.65 391.801 149.29 391.801 150.24C391.801 152.35 395.151 151.32 395.151 152.51C395.151 152.96 394.781 153.23 393.891 153.23C393.201 153.23 392.481 153 392.031 152.68L391.631 153.44C392.071 153.79 392.941 154.06 393.821 154.06ZM399.99 153C399.79 153.16 399.52 153.25 399.24 153.25C398.71 153.25 398.41 152.93 398.41 152.36V149.49H399.93V148.7H398.41V147.54H397.45V148.7H396.55V149.49H397.45V152.4C397.45 153.47 398.06 154.06 399.13 154.06C399.56 154.06 400 153.94 400.29 153.69L399.99 153ZM406.065 151.38C406.065 149.75 404.975 148.65 403.445 148.65C401.915 148.65 400.785 149.78 400.785 151.35C400.785 152.93 401.925 154.06 403.635 154.06C404.515 154.06 405.245 153.76 405.725 153.2L405.195 152.58C404.805 153.01 404.285 153.22 403.665 153.22C402.615 153.22 401.865 152.6 401.745 151.67H406.045C406.055 151.58 406.065 151.46 406.065 151.38ZM403.445 149.46C404.375 149.46 405.045 150.09 405.145 150.98H401.745C401.845 150.08 402.525 149.46 403.445 149.46ZM408.318 149.59V148.7H407.398V154H408.358V151.36C408.358 150.2 408.998 149.57 410.028 149.57C410.098 149.57 410.168 149.57 410.248 149.58V148.65C409.318 148.65 408.658 148.97 408.318 149.59ZM413.653 154.06C415.243 154.06 416.403 152.93 416.403 151.35C416.403 149.77 415.243 148.65 413.653 148.65C412.063 148.65 410.893 149.77 410.893 151.35C410.893 152.93 412.063 154.06 413.653 154.06ZM413.653 153.22C412.633 153.22 411.863 152.48 411.863 151.35C411.863 150.22 412.633 149.49 413.653 149.49C414.673 149.49 415.433 150.22 415.433 151.35C415.433 152.48 414.673 153.22 413.653 153.22ZM420.56 148.65C419.72 148.65 419.04 148.96 418.65 149.5V148.7H417.73V154H418.69V151.27C418.69 150.12 419.35 149.51 420.37 149.51C421.28 149.51 421.8 150.02 421.8 151.06V154H422.76V150.95C422.76 149.39 421.85 148.65 420.56 148.65ZM429.356 151.38C429.356 149.75 428.266 148.65 426.736 148.65C425.206 148.65 424.076 149.78 424.076 151.35C424.076 152.93 425.216 154.06 426.926 154.06C427.806 154.06 428.536 153.76 429.016 153.2L428.486 152.58C428.096 153.01 427.576 153.22 426.956 153.22C425.906 153.22 425.156 152.6 425.036 151.67H429.336C429.346 151.58 429.356 151.46 429.356 151.38ZM426.736 149.46C427.666 149.46 428.336 150.09 428.436 150.98H425.036C425.136 150.08 425.816 149.46 426.736 149.46Z"
        fill="#112D35" />
    <path
        d="M194.304 102H196.124V93.74H199.372V92.2H191.056V93.74H194.304V102ZM202.058 95.616V94.524H200.392V102H202.142V98.374C202.142 96.848 202.982 96.064 204.312 96.064C204.438 96.064 204.564 96.078 204.718 96.106V94.44C203.472 94.44 202.562 94.832 202.058 95.616ZM209.018 94.44C207.814 94.44 206.652 94.748 205.854 95.364L206.54 96.638C207.1 96.176 207.968 95.896 208.808 95.896C210.054 95.896 210.67 96.498 210.67 97.52V97.632H208.738C206.47 97.632 205.63 98.612 205.63 99.858C205.63 101.16 206.708 102.098 208.416 102.098C209.536 102.098 210.348 101.734 210.768 101.09V102H212.42V97.618C212.42 95.462 211.174 94.44 209.018 94.44ZM208.78 100.824C207.884 100.824 207.352 100.418 207.352 99.788C207.352 99.242 207.674 98.794 208.864 98.794H210.67V99.662C210.376 100.432 209.634 100.824 208.78 100.824ZM218.164 102.098C219.62 102.098 220.782 101.468 221.356 100.348L220.012 99.564C219.564 100.278 218.892 100.6 218.15 100.6C216.862 100.6 215.882 99.718 215.882 98.262C215.882 96.82 216.862 95.924 218.15 95.924C218.892 95.924 219.564 96.246 220.012 96.96L221.356 96.176C220.782 95.042 219.62 94.44 218.164 94.44C215.798 94.44 214.118 96.022 214.118 98.262C214.118 100.502 215.798 102.098 218.164 102.098ZM228.442 102H230.57L227.154 97.66L230.276 94.524H228.176L224.55 97.884V91.612H222.8V102H224.55V100.026L225.852 98.794L228.442 102ZM242.892 93.726V92.2H235.738V102H237.558V98.248H242.29V96.708H237.558V93.726H242.892ZM251.307 98.304C251.307 95.966 249.711 94.44 247.527 94.44C245.301 94.44 243.663 96.036 243.663 98.262C243.663 100.488 245.287 102.098 247.793 102.098C249.081 102.098 250.131 101.678 250.803 100.88L249.865 99.802C249.333 100.348 248.675 100.614 247.835 100.614C246.533 100.614 245.623 99.914 245.413 98.822H251.279C251.293 98.654 251.307 98.444 251.307 98.304ZM247.527 95.84C248.675 95.84 249.501 96.582 249.641 97.66H245.399C245.567 96.568 246.393 95.84 247.527 95.84ZM254.654 95.616V94.524H252.988V102H254.738V98.374C254.738 96.848 255.578 96.064 256.908 96.064C257.034 96.064 257.16 96.078 257.314 96.106V94.44C256.068 94.44 255.158 94.832 254.654 95.616ZM263.076 100.348C262.81 100.558 262.46 100.656 262.096 100.656C261.424 100.656 261.06 100.264 261.06 99.536V95.98H263.062V94.58H261.06V92.872H259.31V94.58H258.078V95.98H259.31V99.578C259.31 101.23 260.248 102.098 261.886 102.098C262.516 102.098 263.146 101.93 263.566 101.594L263.076 100.348ZM265.887 93.292C266.545 93.292 267.007 92.816 267.007 92.2C267.007 91.626 266.531 91.192 265.887 91.192C265.243 91.192 264.767 91.654 264.767 92.242C264.767 92.83 265.243 93.292 265.887 93.292ZM265.005 102H266.755V94.524H265.005V102ZM269.052 102H270.802V91.612H269.052V102ZM280.127 98.304C280.127 95.966 278.531 94.44 276.347 94.44C274.121 94.44 272.483 96.036 272.483 98.262C272.483 100.488 274.107 102.098 276.613 102.098C277.901 102.098 278.951 101.678 279.623 100.88L278.685 99.802C278.153 100.348 277.495 100.614 276.655 100.614C275.353 100.614 274.443 99.914 274.233 98.822H280.099C280.113 98.654 280.127 98.444 280.127 98.304ZM276.347 95.84C277.495 95.84 278.321 96.582 278.461 97.66H274.219C274.387 96.568 275.213 95.84 276.347 95.84ZM192.316 119H196.6C199.778 119 201.948 117.04 201.948 114.1C201.948 111.16 199.778 109.2 196.6 109.2H192.316V119ZM194.136 117.46V110.74H196.516C198.7 110.74 200.114 112.07 200.114 114.1C200.114 116.13 198.7 117.46 196.516 117.46H194.136ZM206.57 111.44C205.366 111.44 204.204 111.748 203.406 112.364L204.092 113.638C204.652 113.176 205.52 112.896 206.36 112.896C207.606 112.896 208.222 113.498 208.222 114.52V114.632H206.29C204.022 114.632 203.182 115.612 203.182 116.858C203.182 118.16 204.26 119.098 205.968 119.098C207.088 119.098 207.9 118.734 208.32 118.09V119H209.972V114.618C209.972 112.462 208.726 111.44 206.57 111.44ZM206.332 117.824C205.436 117.824 204.904 117.418 204.904 116.788C204.904 116.242 205.226 115.794 206.416 115.794H208.222V116.662C207.928 117.432 207.186 117.824 206.332 117.824ZM217.402 111.524L215.036 117.054L212.684 111.524H210.864L214.126 119.028L214 119.322C213.664 120.064 213.3 120.358 212.684 120.358C212.208 120.358 211.732 120.162 211.396 119.84L210.696 121.128C211.172 121.562 211.956 121.814 212.698 121.814C213.944 121.814 214.896 121.296 215.582 119.602L219.082 111.524H217.402ZM222.39 119.098C224.49 119.098 225.778 118.188 225.778 116.788C225.778 113.862 221.158 115.206 221.158 113.694C221.158 113.204 221.662 112.854 222.726 112.854C223.44 112.854 224.154 112.994 224.868 113.414L225.54 112.084C224.868 111.678 223.734 111.44 222.74 111.44C220.724 111.44 219.45 112.364 219.45 113.778C219.45 116.76 224.07 115.416 224.07 116.844C224.07 117.362 223.608 117.67 222.502 117.67C221.564 117.67 220.556 117.362 219.898 116.928L219.226 118.258C219.898 118.734 221.144 119.098 222.39 119.098Z"
        fill="#112D35" />
    <path opacity="0.5"
        d="M199.5 142L199.49 135H198.67L195.79 139.92L192.87 135H192.05V142H193.01V136.93L195.54 141.15H196L198.53 136.9L198.54 142H199.5ZM206.251 139.38C206.251 137.75 205.161 136.65 203.631 136.65C202.101 136.65 200.971 137.78 200.971 139.35C200.971 140.93 202.111 142.06 203.821 142.06C204.701 142.06 205.431 141.76 205.911 141.2L205.381 140.58C204.991 141.01 204.471 141.22 203.851 141.22C202.801 141.22 202.051 140.6 201.931 139.67H206.231C206.241 139.58 206.251 139.46 206.251 139.38ZM203.631 137.46C204.561 137.46 205.231 138.09 205.331 138.98H201.931C202.031 138.08 202.711 137.46 203.631 137.46ZM209.367 136.65C208.517 136.65 207.727 136.89 207.177 137.33L207.577 138.05C207.987 137.7 208.627 137.48 209.257 137.48C210.207 137.48 210.677 137.95 210.677 138.76V138.95H209.157C207.577 138.95 207.027 139.65 207.027 140.5C207.027 141.42 207.787 142.06 208.987 142.06C209.817 142.06 210.407 141.78 210.727 141.3V142H211.637V138.8C211.637 137.35 210.817 136.65 209.367 136.65ZM209.147 141.32C208.417 141.32 207.977 140.99 207.977 140.46C207.977 140.01 208.247 139.64 209.197 139.64H210.677V140.38C210.437 140.99 209.867 141.32 209.147 141.32ZM214.934 142.06C216.344 142.06 217.224 141.45 217.224 140.49C217.224 138.43 213.864 139.45 213.864 138.2C213.864 137.78 214.274 137.47 215.114 137.47C215.634 137.47 216.164 137.58 216.644 137.89L217.054 137.13C216.594 136.83 215.814 136.65 215.124 136.65C213.764 136.65 212.914 137.29 212.914 138.24C212.914 140.35 216.264 139.32 216.264 140.51C216.264 140.96 215.894 141.23 215.004 141.23C214.314 141.23 213.594 141 213.144 140.68L212.744 141.44C213.184 141.79 214.054 142.06 214.934 142.06ZM222.404 136.7V139.44C222.404 140.58 221.764 141.2 220.764 141.2C219.854 141.2 219.334 140.68 219.334 139.64V136.7H218.374V139.75C218.374 141.31 219.284 142.06 220.654 142.06C221.404 142.06 222.064 141.75 222.454 141.2V142H223.364V136.7H222.404ZM226.111 137.59V136.7H225.191V142H226.151V139.36C226.151 138.2 226.791 137.57 227.821 137.57C227.891 137.57 227.961 137.57 228.041 137.58V136.65C227.111 136.65 226.451 136.97 226.111 137.59ZM233.966 139.38C233.966 137.75 232.876 136.65 231.346 136.65C229.816 136.65 228.686 137.78 228.686 139.35C228.686 140.93 229.826 142.06 231.536 142.06C232.416 142.06 233.146 141.76 233.626 141.2L233.096 140.58C232.706 141.01 232.186 141.22 231.566 141.22C230.516 141.22 229.766 140.6 229.646 139.67H233.946C233.956 139.58 233.966 139.46 233.966 139.38ZM231.346 137.46C232.276 137.46 232.946 138.09 233.046 138.98H229.646C229.746 138.08 230.426 137.46 231.346 137.46ZM236.819 142.06C238.229 142.06 239.109 141.45 239.109 140.49C239.109 138.43 235.749 139.45 235.749 138.2C235.749 137.78 236.159 137.47 236.999 137.47C237.519 137.47 238.049 137.58 238.529 137.89L238.939 137.13C238.479 136.83 237.699 136.65 237.009 136.65C235.649 136.65 234.799 137.29 234.799 138.24C234.799 140.35 238.149 139.32 238.149 140.51C238.149 140.96 237.779 141.23 236.889 141.23C236.199 141.23 235.479 141 235.029 140.68L234.629 141.44C235.069 141.79 235.939 142.06 236.819 142.06ZM243.134 142H247.924V141.13H244.134V135H243.134V142ZM254.091 135V138.01H250.071V135H249.071V142H250.071V138.88H254.091V142H255.091V135H254.091ZM196.15 150.11H194.33V148.31H193.49V150.11H191.67V150.9H193.49V152.69H194.33V150.9H196.15V150.11ZM201.556 153.13V150.87H205.066V150.02H201.556V147.87H205.496V147H200.556V154H205.636V153.13H201.556ZM208.567 154.06C209.977 154.06 210.857 153.45 210.857 152.49C210.857 150.43 207.497 151.45 207.497 150.2C207.497 149.78 207.907 149.47 208.747 149.47C209.267 149.47 209.797 149.58 210.277 149.89L210.687 149.13C210.227 148.83 209.447 148.65 208.757 148.65C207.397 148.65 206.547 149.29 206.547 150.24C206.547 152.35 209.897 151.32 209.897 152.51C209.897 152.96 209.527 153.23 208.637 153.23C207.947 153.23 207.227 153 206.777 152.68L206.377 153.44C206.817 153.79 207.687 154.06 208.567 154.06ZM214.736 153C214.536 153.16 214.266 153.25 213.986 153.25C213.456 153.25 213.156 152.93 213.156 152.36V149.49H214.676V148.7H213.156V147.54H212.196V148.7H211.296V149.49H212.196V152.4C212.196 153.47 212.806 154.06 213.876 154.06C214.306 154.06 214.746 153.94 215.036 153.69L214.736 153ZM217.117 149.59V148.7H216.197V154H217.157V151.36C217.157 150.2 217.797 149.57 218.827 149.57C218.897 149.57 218.967 149.57 219.047 149.58V148.65C218.117 148.65 217.457 148.97 217.117 149.59ZM222.451 154.06C224.041 154.06 225.201 152.93 225.201 151.35C225.201 149.77 224.041 148.65 222.451 148.65C220.861 148.65 219.691 149.77 219.691 151.35C219.691 152.93 220.861 154.06 222.451 154.06ZM222.451 153.22C221.431 153.22 220.661 152.48 220.661 151.35C220.661 150.22 221.431 149.49 222.451 149.49C223.471 149.49 224.231 150.22 224.231 151.35C224.231 152.48 223.471 153.22 222.451 153.22ZM230.689 148.7V149.52C230.239 148.94 229.519 148.65 228.729 148.65C227.199 148.65 226.039 149.68 226.039 151.21C226.039 152.74 227.199 153.78 228.729 153.78C229.489 153.78 230.179 153.51 230.639 152.96V153.38C230.639 154.58 230.069 155.16 228.819 155.16C228.039 155.16 227.269 154.89 226.779 154.47L226.319 155.21C226.899 155.73 227.879 156 228.849 156C230.649 156 231.599 155.15 231.599 153.28V148.7H230.689ZM228.839 152.94C227.769 152.94 227.009 152.23 227.009 151.21C227.009 150.18 227.769 149.49 228.839 149.49C229.899 149.49 230.659 150.18 230.659 151.21C230.659 152.23 229.899 152.94 228.839 152.94ZM238.223 151.38C238.223 149.75 237.133 148.65 235.603 148.65C234.073 148.65 232.943 149.78 232.943 151.35C232.943 152.93 234.083 154.06 235.793 154.06C236.673 154.06 237.403 153.76 237.883 153.2L237.353 152.58C236.963 153.01 236.443 153.22 235.823 153.22C234.773 153.22 234.023 152.6 233.903 151.67H238.203C238.213 151.58 238.223 151.46 238.223 151.38ZM235.603 149.46C236.533 149.46 237.203 150.09 237.303 150.98H233.903C234.003 150.08 234.683 149.46 235.603 149.46ZM242.386 148.65C241.546 148.65 240.866 148.96 240.476 149.5V148.7H239.556V154H240.516V151.27C240.516 150.12 241.176 149.51 242.196 149.51C243.106 149.51 243.626 150.02 243.626 151.06V154H244.586V150.95C244.586 149.39 243.676 148.65 242.386 148.65Z"
        fill="#112D35" />
    <path
        d="M366.852 102.14C368.462 102.14 369.834 101.566 370.744 100.502L369.568 99.382C368.854 100.166 367.972 100.544 366.95 100.544C364.92 100.544 363.45 99.116 363.45 97.1C363.45 95.084 364.92 93.656 366.95 93.656C367.972 93.656 368.854 94.034 369.568 94.804L370.744 93.698C369.834 92.634 368.462 92.06 366.866 92.06C363.856 92.06 361.616 94.174 361.616 97.1C361.616 100.026 363.856 102.14 366.852 102.14ZM375.406 102.098C377.73 102.098 379.396 100.502 379.396 98.262C379.396 96.022 377.73 94.44 375.406 94.44C373.11 94.44 371.43 96.022 371.43 98.262C371.43 100.502 373.11 102.098 375.406 102.098ZM375.406 100.6C374.146 100.6 373.194 99.69 373.194 98.262C373.194 96.834 374.146 95.924 375.406 95.924C376.68 95.924 377.632 96.834 377.632 98.262C377.632 99.69 376.68 100.6 375.406 100.6ZM385.312 94.44C384.22 94.44 383.31 94.804 382.736 95.49V94.524H381.07V102H382.82V98.22C382.82 96.722 383.66 95.966 384.906 95.966C386.026 95.966 386.684 96.61 386.684 97.94V102H388.434V97.716C388.434 95.462 387.104 94.44 385.312 94.44ZM393.692 92.928C394.056 92.928 394.392 93.054 394.658 93.236L395.148 91.92C394.756 91.64 394.168 91.514 393.566 91.514C391.83 91.514 390.892 92.536 390.892 94.104V94.58H389.66V95.98H390.892V102H392.642V95.98H394.644V94.58H392.586V94.132C392.586 93.334 392.964 92.928 393.692 92.928ZM397.825 93.292C398.483 93.292 398.945 92.816 398.945 92.2C398.945 91.626 398.469 91.192 397.825 91.192C397.181 91.192 396.705 91.654 396.705 92.242C396.705 92.83 397.181 93.292 397.825 93.292ZM396.943 102H398.693V94.524H396.943V102ZM402.656 95.616V94.524H400.99V102H402.74V98.374C402.74 96.848 403.58 96.064 404.91 96.064C405.036 96.064 405.162 96.078 405.316 96.106V94.44C404.07 94.44 403.16 94.832 402.656 95.616ZM416.236 94.44C415.046 94.44 414.038 94.916 413.436 95.686C412.918 94.846 412.008 94.44 410.916 94.44C409.894 94.44 409.026 94.804 408.466 95.476V94.524H406.8V102H408.55V98.206C408.55 96.722 409.334 95.966 410.496 95.966C411.56 95.966 412.176 96.61 412.176 97.94V102H413.926V98.206C413.926 96.722 414.724 95.966 415.872 95.966C416.936 95.966 417.552 96.61 417.552 97.94V102H419.302V97.716C419.302 95.462 418.042 94.44 416.236 94.44ZM366.894 119.14C369.932 119.14 372.172 117.012 372.172 114.1C372.172 111.188 369.932 109.06 366.894 109.06C363.856 109.06 361.616 111.202 361.616 114.1C361.616 116.998 363.856 119.14 366.894 119.14ZM366.894 117.544C364.92 117.544 363.45 116.102 363.45 114.1C363.45 112.098 364.92 110.656 366.894 110.656C368.868 110.656 370.338 112.098 370.338 114.1C370.338 116.102 368.868 117.544 366.894 117.544ZM379.253 111.524L376.859 117.068L374.535 111.524H372.715L375.921 119H377.727L380.933 111.524H379.253ZM387.515 111.524V115.304C387.515 116.802 386.689 117.558 385.471 117.558C384.365 117.558 383.721 116.914 383.721 115.556V111.524H381.971V115.794C381.971 118.048 383.273 119.098 385.191 119.098C386.157 119.098 387.039 118.734 387.599 118.048V119H389.265V111.524H387.515ZM391.556 119H393.306V108.612H391.556V119ZM398.459 111.44C397.255 111.44 396.093 111.748 395.295 112.364L395.981 113.638C396.541 113.176 397.409 112.896 398.249 112.896C399.495 112.896 400.111 113.498 400.111 114.52V114.632H398.179C395.911 114.632 395.071 115.612 395.071 116.858C395.071 118.16 396.149 119.098 397.857 119.098C398.977 119.098 399.789 118.734 400.209 118.09V119H401.861V114.618C401.861 112.462 400.615 111.44 398.459 111.44ZM398.221 117.824C397.325 117.824 396.793 117.418 396.793 116.788C396.793 116.242 397.115 115.794 398.305 115.794H400.111V116.662C399.817 117.432 399.075 117.824 398.221 117.824ZM408.111 117.348C407.845 117.558 407.495 117.656 407.131 117.656C406.459 117.656 406.095 117.264 406.095 116.536V112.98H408.097V111.58H406.095V109.872H404.345V111.58H403.113V112.98H404.345V116.578C404.345 118.23 405.283 119.098 406.921 119.098C407.551 119.098 408.181 118.93 408.601 118.594L408.111 117.348ZM410.923 110.292C411.581 110.292 412.043 109.816 412.043 109.2C412.043 108.626 411.567 108.192 410.923 108.192C410.279 108.192 409.803 108.654 409.803 109.242C409.803 109.83 410.279 110.292 410.923 110.292ZM410.041 119H411.791V111.524H410.041V119ZM417.447 119.098C419.771 119.098 421.437 117.502 421.437 115.262C421.437 113.022 419.771 111.44 417.447 111.44C415.151 111.44 413.471 113.022 413.471 115.262C413.471 117.502 415.151 119.098 417.447 119.098ZM417.447 117.6C416.187 117.6 415.235 116.69 415.235 115.262C415.235 113.834 416.187 112.924 417.447 112.924C418.721 112.924 419.673 113.834 419.673 115.262C419.673 116.69 418.721 117.6 417.447 117.6ZM427.353 111.44C426.261 111.44 425.351 111.804 424.777 112.49V111.524H423.111V119H424.861V115.22C424.861 113.722 425.701 112.966 426.947 112.966C428.067 112.966 428.725 113.61 428.725 114.94V119H430.475V114.716C430.475 112.462 429.145 111.44 427.353 111.44Z"
        fill="#112D35" />
    <path opacity="0.4"
        d="M351.034 463H354.4C356.897 463 358.602 461.46 358.602 459.15C358.602 456.84 356.897 455.3 354.4 455.3H351.034V463ZM352.464 461.79V456.51H354.334C356.05 456.51 357.161 457.555 357.161 459.15C357.161 460.745 356.05 461.79 354.334 461.79H352.464ZM362.234 457.06C361.288 457.06 360.375 457.302 359.748 457.786L360.287 458.787C360.727 458.424 361.409 458.204 362.069 458.204C363.048 458.204 363.532 458.677 363.532 459.48V459.568H362.014C360.232 459.568 359.572 460.338 359.572 461.317C359.572 462.34 360.419 463.077 361.761 463.077C362.641 463.077 363.279 462.791 363.609 462.285V463H364.907V459.557C364.907 457.863 363.928 457.06 362.234 457.06ZM362.047 462.076C361.343 462.076 360.925 461.757 360.925 461.262C360.925 460.833 361.178 460.481 362.113 460.481H363.532V461.163C363.301 461.768 362.718 462.076 362.047 462.076ZM370.744 457.126L368.885 461.471L367.037 457.126H365.607L368.17 463.022L368.071 463.253C367.807 463.836 367.521 464.067 367.037 464.067C366.663 464.067 366.289 463.913 366.025 463.66L365.475 464.672C365.849 465.013 366.465 465.211 367.048 465.211C368.027 465.211 368.775 464.804 369.314 463.473L372.064 457.126H370.744ZM374.663 463.077C376.313 463.077 377.325 462.362 377.325 461.262C377.325 458.963 373.695 460.019 373.695 458.831C373.695 458.446 374.091 458.171 374.927 458.171C375.488 458.171 376.049 458.281 376.61 458.611L377.138 457.566C376.61 457.247 375.719 457.06 374.938 457.06C373.354 457.06 372.353 457.786 372.353 458.897C372.353 461.24 375.983 460.184 375.983 461.306C375.983 461.713 375.62 461.955 374.751 461.955C374.014 461.955 373.222 461.713 372.705 461.372L372.177 462.417C372.705 462.791 373.684 463.077 374.663 463.077ZM384.409 458.479L386.279 456.257V455.3H381.032V456.499H384.53L382.781 458.578V459.557H383.485C384.651 459.557 385.157 460.008 385.157 460.701C385.157 461.416 384.552 461.867 383.529 461.867C382.66 461.867 381.824 461.57 381.274 461.108L380.658 462.219C381.373 462.78 382.462 463.11 383.551 463.11C385.619 463.11 386.598 461.988 386.598 460.69C386.598 459.535 385.861 458.666 384.409 458.479ZM390.695 460.514H393.72V459.37H390.695V460.514ZM401.344 458.248C400.486 458.248 399.749 458.512 399.287 459.051V459.04C399.287 457.291 400.2 456.389 401.652 456.389C402.191 456.389 402.697 456.488 403.115 456.763L403.643 455.685C403.126 455.355 402.389 455.19 401.619 455.19C399.386 455.19 397.846 456.642 397.846 459.282C397.846 461.757 399.078 463.11 401.179 463.11C402.752 463.11 403.995 462.142 403.995 460.613C403.995 459.172 402.862 458.248 401.344 458.248ZM401.102 461.988C400.079 461.988 399.507 461.416 399.507 460.69C399.507 459.931 400.145 459.37 401.069 459.37C402.004 459.37 402.609 459.876 402.609 460.679C402.609 461.482 401.993 461.988 401.102 461.988ZM410.445 457.06C409.499 457.06 408.586 457.302 407.959 457.786L408.498 458.787C408.938 458.424 409.62 458.204 410.28 458.204C411.259 458.204 411.743 458.677 411.743 459.48V459.568H410.225C408.443 459.568 407.783 460.338 407.783 461.317C407.783 462.34 408.63 463.077 409.972 463.077C410.852 463.077 411.49 462.791 411.82 462.285V463H413.118V459.557C413.118 457.863 412.139 457.06 410.445 457.06ZM410.258 462.076C409.554 462.076 409.136 461.757 409.136 461.262C409.136 460.833 409.389 460.481 410.324 460.481H411.743V461.163C411.512 461.768 410.929 462.076 410.258 462.076ZM417.269 455.872C417.555 455.872 417.819 455.971 418.028 456.114L418.413 455.08C418.105 454.86 417.643 454.761 417.17 454.761C415.806 454.761 415.069 455.564 415.069 456.796V457.17H414.101V458.27H415.069V463H416.444V458.27H418.017V457.17H416.4V456.818C416.4 456.191 416.697 455.872 417.269 455.872ZM422.089 461.702C421.88 461.867 421.605 461.944 421.319 461.944C420.791 461.944 420.505 461.636 420.505 461.064V458.27H422.078V457.17H420.505V455.828H419.13V457.17H418.162V458.27H419.13V461.097C419.13 462.395 419.867 463.077 421.154 463.077C421.649 463.077 422.144 462.945 422.474 462.681L422.089 461.702ZM428.934 460.096C428.934 458.259 427.68 457.06 425.964 457.06C424.215 457.06 422.928 458.314 422.928 460.063C422.928 461.812 424.204 463.077 426.173 463.077C427.185 463.077 428.01 462.747 428.538 462.12L427.801 461.273C427.383 461.702 426.866 461.911 426.206 461.911C425.183 461.911 424.468 461.361 424.303 460.503H428.912C428.923 460.371 428.934 460.206 428.934 460.096ZM425.964 458.16C426.866 458.16 427.515 458.743 427.625 459.59H424.292C424.424 458.732 425.073 458.16 425.964 458.16ZM431.564 457.984V457.126H430.255V463H431.63V460.151C431.63 458.952 432.29 458.336 433.335 458.336C433.434 458.336 433.533 458.347 433.654 458.369V457.06C432.675 457.06 431.96 457.368 431.564 457.984ZM441.214 455.3H438.046V463H439.476V460.778H441.214C443.238 460.778 444.492 459.733 444.492 458.039C444.492 456.334 443.238 455.3 441.214 455.3ZM441.148 459.568H439.476V456.51H441.148C442.402 456.51 443.051 457.071 443.051 458.039C443.051 459.007 442.402 459.568 441.148 459.568ZM451.288 460.096C451.288 458.259 450.034 457.06 448.318 457.06C446.569 457.06 445.282 458.314 445.282 460.063C445.282 461.812 446.558 463.077 448.527 463.077C449.539 463.077 450.364 462.747 450.892 462.12L450.155 461.273C449.737 461.702 449.22 461.911 448.56 461.911C447.537 461.911 446.822 461.361 446.657 460.503H451.266C451.277 460.371 451.288 460.206 451.288 460.096ZM448.318 458.16C449.22 458.16 449.869 458.743 449.979 459.59H446.646C446.778 458.732 447.427 458.16 448.318 458.16ZM454.692 457.06C453.746 457.06 452.833 457.302 452.206 457.786L452.745 458.787C453.185 458.424 453.867 458.204 454.527 458.204C455.506 458.204 455.99 458.677 455.99 459.48V459.568H454.472C452.69 459.568 452.03 460.338 452.03 461.317C452.03 462.34 452.877 463.077 454.219 463.077C455.099 463.077 455.737 462.791 456.067 462.285V463H457.365V459.557C457.365 457.863 456.386 457.06 454.692 457.06ZM454.505 462.076C453.801 462.076 453.383 461.757 453.383 461.262C453.383 460.833 453.636 460.481 454.571 460.481H455.99V461.163C455.759 461.768 455.176 462.076 454.505 462.076ZM463.563 463H465.235L462.551 459.59L465.004 457.126H463.354L460.505 459.766V454.838H459.13V463H460.505V461.449L461.528 460.481L463.563 463Z"
        fill="#112D35" />
    <circle cx="35" cy="414" r="5" fill="#112D35" />
    <circle cx="565" cy="414" r="5" fill="#112D35" />
    <g style="mix-blend-mode:multiply" filter="url(#filter2_d_0_120)">
        <circle cx="300" cy="413" r="25" fill="white" />
    </g>
    <circle cx="300" cy="413" r="25" fill="white" />
    <path fill-rule="evenodd" clip-rule="evenodd"
        d="M300 422.469L291.367 413.835C289.772 412.241 289.772 409.654 291.367 408.06C292.96 406.465 295.548 406.465 297.141 408.06L300 410.918L302.859 408.06C304.451 406.465 307.04 406.465 308.633 408.06C310.228 409.654 310.228 412.241 308.633 413.835L300 422.469Z"
        fill="#EC6D8F" />
    <defs>
        <filter id="filter0_b_0_120" x="9.81718" y="168.817" width="559.366" height="272.366"
            filterUnits="userSpaceOnUse" color-interpolation-filters="sRGB">
            <feFlood flood-opacity="0" result="BackgroundImageFix" />
            <feGaussianBlur in="BackgroundImageFix" stdDeviation="13.5914" />
            <feComposite in2="SourceAlpha" operator="in" result="effect1_backgroundBlur_0_120" />
            <feBlend mode="normal" in="SourceGraphic" in2="effect1_backgroundBlur_0_120"
                result="shape" />
        </filter>
        <filter id="filter1_b_0_120" x="5.81718" y="181.817" width="581.366" height="259.121"
            filterUnits="userSpaceOnUse" color-interpolation-filters="sRGB">
            <feFlood flood-opacity="0" result="BackgroundImageFix" />
            <feGaussianBlur in="BackgroundImageFix" stdDeviation="13.5914" />
            <feComposite in2="SourceAlpha" operator="in" result="effect1_backgroundBlur_0_120" />
            <feBlend mode="normal" in="SourceGraphic" in2="effect1_backgroundBlur_0_120"
                result="shape" />
        </filter>
        <filter id="filter2_d_0_120" x="257" y="376" width="86" height="86"
            filterUnits="userSpaceOnUse" color-interpolation-filters="sRGB">
            <feFlood flood-opacity="0" result="BackgroundImageFix" />
            <feColorMatrix in="SourceAlpha" type="matrix"
                values="0 0 0 0 0 0 0 0 0 0 0 0 0 0 0 0 0 0 127 0" result="hardAlpha" />
            <feOffset dy="6" />
            <feGaussianBlur stdDeviation="9" />
            <feColorMatrix type="matrix" values="0 0 0 0 0 0 0 0 0 0 0 0 0 0 0 0 0 0 0.152699 0" />
            <feBlend mode="normal" in2="BackgroundImageFix" result="effect1_dropShadow_0_120" />
            <feBlend mode="normal" in="SourceGraphic" in2="effect1_dropShadow_0_120" result="shape" />
        </filter>
        <linearGradient id="paint0_linear_0_120" x1="239.5" y1="218.936" x2="244.654" y2="499.224"
            gradientUnits="userSpaceOnUse">
            <stop stop-color="#78B1FA" />
            <stop offset="1" stop-color="#BCE8ED" />
        </linearGradient>
        <linearGradient id="paint1_linear_0_120" x1="188.971" y1="563.636" x2="127.99" y2="261.083"
            gradientUnits="userSpaceOnUse">
            <stop stop-color="#3BBCD4" />
            <stop offset="1" stop-color="#BCE8ED" />
        </linearGradient>
        <linearGradient id="paint2_linear_0_120" x1="33" y1="414" x2="254.065" y2="70.334"
            gradientUnits="userSpaceOnUse">
            <stop stop-color="#AA92E1" />
            <stop offset="1" stop-color="#EEEDFF" />
        </linearGradient>
        <linearGradient id="paint3_linear_0_120" x1="300.5" y1="413.24" x2="300.5" y2="93"
            gradientUnits="userSpaceOnUse">
            <stop />
            <stop offset="0.632375" />
            <stop offset="1" stop-opacity="0.01" />
        </linearGradient>
    </defs>
</svg>
    